# xmcd
#
# Track frame offsets: 
#        150
#        21047
#        37970
#        52736
#        67671
#        82042
#        98546
#        114831
#        137800
#        156658
#
# Disc length: 2295 seconds
#
# Revision: 2
# Processed by: cddbd v1.5.2PL0 Copyright (c) Steve Scherf et al.
# Submitted via: ExactAudioCopyFreeDBPlugin 1.0
#
DISCID=7008f50a
DTITLE=Los Dos Y Companeros - Salsa Guerrilleros
DYEAR=2012
DGENRE=Salsa
TTITLE0=San mia Kubana
TTITLE1=Mia hom an Seier
TTITLE2=Vattadoch
TTITLE3=Nackada
TTITLE4=D'näxte Rund'n
TTITLE5=Zöich dei Gwand oh
TTITLE6=Luda
TTITLE7=Cuca Lambe
TTITLE8=Bum Schakalaka
TTITLE9=Los Dos y Campaneros
EXTD=YEAR: 2012
EXTT0=
EXTT1=
EXTT2=
EXTT3=
EXTT4=
EXTT5=
EXTT6=
EXTT7=
EXTT8=
EXTT9=
PLAYORDER=
